<svg width="304" height="43" viewBox="0 0 304 43" fill="none" xmlns="http://www.w3.org/2000/svg">
<g clip-path="url(#clip0)">
<path d="M3.05176e-05 35.1906H8.57736V21.0661C8.57736 18.2218 10.1123 16.6795 12.1888 16.6795C14.2202 16.6795 15.6199 18.2219 15.6199 21.0661V35.1906H24.1972V18.1256C24.1972 12.196 21.0823 8.53244 15.8907 8.53244C12.4146 8.53244 10.1575 10.5088 8.57736 12.6781V-6.10352e-05H3.05176e-05V35.1905V35.1906Z" fill="#FAFAFA"/>
<path d="M40.7199 35.8172C45.5955 35.8172 48.9813 33.6962 51.3288 30.5146L46.5885 26.3206C44.8281 28.1523 43.2028 28.9719 41.1713 28.9719C38.508 28.9719 36.5666 27.5257 35.8895 24.6815H52.2318C52.2768 24.0548 52.2768 23.3802 52.2768 22.8016C52.2768 15.1367 48.3946 8.53252 39.9525 8.53252C32.7295 8.53252 27.6284 14.5583 27.6284 22.1748V22.2713C27.6284 30.3701 33.0456 35.8173 40.72 35.8173L40.7199 35.8172ZM35.7541 20.0054C36.2056 17.1614 37.7405 15.2812 39.9977 15.2812C42.3452 15.2812 43.9253 17.113 44.2413 20.0054H35.7541Z" fill="#FAFAFA"/>
<path d="M56.1139 35.1905H64.6912V0H56.1139V35.1905Z" fill="#FAFAFA"/>
<path d="M79.3633 35.7691C83.0198 35.7691 85.1416 33.8889 86.8119 31.7197V35.1905H95.3893V0H86.8119V12.2926C85.1866 10.3162 83.0198 8.53251 79.318 8.53251C73.5397 8.53251 68.5737 13.6905 68.5737 22.1748V22.2713C68.5737 30.6111 73.5848 35.7692 79.3633 35.7692V35.7691ZM81.9816 28.1042C79.2277 28.1042 76.9705 25.6456 76.9705 22.1747V22.0784C76.9705 18.6076 79.2277 16.1972 81.9816 16.1972C84.7353 16.1972 86.9474 18.6557 86.9474 22.0784V22.1747C86.9474 25.6455 84.7352 28.1042 81.9816 28.1042Z" fill="#FAFAFA"/>
<path d="M112.454 35.8172C120.309 35.8172 125.997 29.5986 125.997 22.1748V22.0786C125.997 14.6548 120.354 8.53252 112.544 8.53252C104.689 8.53252 99.0011 14.7512 99.0011 22.1748V22.2713C99.0011 29.6951 104.644 35.8173 112.454 35.8173V35.8172ZM112.544 28.0561C109.52 28.0561 107.353 25.3564 107.353 22.1747V22.0784C107.353 18.9451 109.339 16.2935 112.454 16.2935C115.479 16.2935 117.646 18.9932 117.646 22.1747V22.2712C117.646 25.4045 115.659 28.0561 112.544 28.0561H112.544Z" fill="#FAFAFA"/>
<path d="M149.472 35.1905V19.8608C149.472 16.647 148.614 14.2367 146.899 12.6299C145.183 11.0229 142.836 10.2195 139.856 10.2195C138.261 10.2195 136.817 10.4204 135.522 10.8141C134.229 11.2077 132.949 11.7298 131.685 12.3888L132.498 14.4615C133.551 13.883 134.665 13.4091 135.838 13.0395C137.012 12.6699 138.306 12.4851 139.721 12.4851C142.099 12.4851 143.957 13.1118 145.296 14.3572C146.636 15.6026 147.305 17.4664 147.305 19.9653V21.0177C146.191 20.6961 145.048 20.4391 143.874 20.2462C142.7 20.0535 141.301 19.957 139.676 19.957C138.171 19.957 136.802 20.1337 135.568 20.4872C134.334 20.8407 133.28 21.3551 132.408 22.0299C131.535 22.7048 130.85 23.5404 130.354 24.5366C129.857 25.5328 129.609 26.6738 129.609 27.9593V28.0558C129.609 29.3412 129.872 30.4662 130.399 31.4303C130.926 32.3945 131.61 33.1978 132.453 33.8407C133.296 34.4833 134.244 34.9654 135.297 35.2869C136.35 35.6081 137.419 35.769 138.502 35.769C139.585 35.769 140.586 35.6323 141.504 35.3592C142.422 35.0861 143.242 34.7325 143.964 34.2986C144.687 33.8646 145.326 33.3664 145.883 32.8042C146.44 32.2418 146.914 31.6714 147.305 31.0929V35.1904H149.472V35.1905ZM147.35 25.967C147.35 27.0839 147.117 28.1121 146.651 29.0362C146.184 29.968 145.552 30.7555 144.754 31.4144C143.957 32.0731 143.031 32.5794 141.978 32.9488C140.925 33.3185 139.811 33.5032 138.638 33.5032C137.765 33.5032 136.922 33.3747 136.109 33.1176C135.297 32.8606 134.582 32.4908 133.965 32.0169C133.348 31.5348 132.859 30.9484 132.498 30.2652C132.137 29.5745 131.956 28.779 131.956 27.8872V27.7907C131.956 26.0632 132.611 24.6812 133.92 23.6369C135.229 22.6005 137.102 22.0783 139.54 22.0783C141.196 22.0783 142.67 22.1987 143.964 22.4397C145.259 22.6806 146.387 22.9298 147.35 23.1788V25.9667V25.967Z" fill="#FAFAFA"/>
<path d="M176.694 35.1905V10.6053H174.482V24.8262C174.482 26.1116 174.279 27.2928 173.872 28.3694C173.466 29.446 172.902 30.37 172.179 31.1411C171.457 31.9125 170.607 32.515 169.629 32.949C168.651 33.3827 167.605 33.5999 166.491 33.5999C164.144 33.5999 162.338 32.8365 161.074 31.3099C159.81 29.7833 159.178 27.7507 159.178 25.212V10.6054H156.966V25.6458C156.966 27.1243 157.169 28.4821 157.575 29.7194C157.982 30.9567 158.584 32.0253 159.381 32.9251C160.179 33.825 161.15 34.524 162.293 35.022C163.437 35.5202 164.731 35.7692 166.175 35.7692C168.282 35.7692 169.998 35.2711 171.322 34.2748C172.646 33.2786 173.699 32.0574 174.482 30.6112V35.1908H176.694L176.694 35.1905Z" fill="#FAFAFA"/>
<path d="M206.489 31.3822V10.6053H204.277V15.5223C203.795 14.8152 203.238 14.1242 202.606 13.4496C201.974 12.7746 201.267 12.1881 200.485 11.6901C199.702 11.1918 198.822 10.7901 197.844 10.4847C196.866 10.1795 195.805 10.0268 194.661 10.0268C193.277 10.0268 191.922 10.3 190.598 10.8464C189.274 11.3928 188.093 12.1721 187.054 13.1844C186.016 14.1966 185.181 15.4259 184.549 16.8722C183.917 18.3184 183.601 19.9254 183.601 21.6927V21.7892C183.601 23.5568 183.917 25.1476 184.549 26.5617C185.181 27.9757 186.016 29.1888 187.054 30.2013C188.093 31.2136 189.274 31.9928 190.598 32.5393C191.922 33.0856 193.277 33.3589 194.661 33.3589C195.805 33.3589 196.858 33.2062 197.821 32.9007C198.784 32.5956 199.657 32.1777 200.44 31.6475C201.222 31.1173 201.929 30.5147 202.561 29.8396C203.193 29.1649 203.765 28.4418 204.277 27.6704V31.2377C204.277 32.8125 204.051 34.1864 203.6 35.3673C203.148 36.5485 202.516 37.5446 201.719 38.3401C200.921 39.1355 199.973 39.7382 198.867 40.1319C197.769 40.5336 196.55 40.7344 195.225 40.7344C191.817 40.7344 188.71 39.5775 185.903 37.2635L184.594 39.1918C187.762 41.7308 191.291 43.0001 195.18 43.0001C196.805 43.0001 198.318 42.7431 199.702 42.229C201.087 41.7146 202.291 40.9675 203.299 39.9872C204.307 39.0069 205.097 37.794 205.654 36.3478C206.21 34.9016 206.489 33.2464 206.489 31.3824V31.3822ZM204.412 21.741C204.412 23.155 204.141 24.4325 203.6 25.5733C203.058 26.7144 202.336 27.6945 201.448 28.514C200.56 29.3335 199.537 29.968 198.393 30.4181C197.25 30.8681 196.068 31.093 194.864 31.093C193.691 31.093 192.555 30.8599 191.471 30.394C190.38 29.928 189.432 29.2851 188.619 28.4656C187.807 27.6463 187.152 26.658 186.671 25.501C186.189 24.3442 185.949 23.0747 185.949 21.6927V21.5965C185.949 20.1503 186.182 18.8567 186.648 17.7159C187.115 16.5748 187.762 15.6029 188.574 14.7994C189.387 13.996 190.335 13.3774 191.426 12.9434C192.509 12.5095 193.661 12.2926 194.864 12.2926C196.068 12.2926 197.25 12.5095 198.393 12.9434C199.537 13.3774 200.56 14.0041 201.448 14.8236C202.336 15.6429 203.058 16.6312 203.6 17.7882C204.141 18.9452 204.412 20.2306 204.412 21.6446V21.7411V21.741Z" fill="#FAFAFA"/>
<path d="M234.162 35.1905V10.6053H231.95V24.8262C231.95 26.1116 231.747 27.2928 231.34 28.3694C230.934 29.446 230.37 30.37 229.648 31.1411C228.925 31.9125 228.075 32.515 227.097 32.949C226.119 33.3827 225.073 33.5999 223.959 33.5999C221.612 33.5999 219.806 32.8365 218.542 31.3099C217.278 29.7833 216.646 27.7507 216.646 25.212V10.6054H214.434V25.6458C214.434 27.1243 214.637 28.4821 215.044 29.7194C215.45 30.9567 216.052 32.0253 216.849 32.9251C217.647 33.825 218.618 34.524 219.761 35.022C220.905 35.5202 222.199 35.7692 223.644 35.7692C225.75 35.7692 227.466 35.2711 228.79 34.2748C230.114 33.2786 231.168 32.0574 231.95 30.6112V35.1908H234.162L234.162 35.1905Z" fill="#FAFAFA"/>
<path d="M257.953 28.5059V28.4094C257.953 27.3167 257.735 26.401 257.298 25.6697C256.862 24.9306 256.283 24.2958 255.56 23.7656C254.838 23.2351 254.025 22.8015 253.122 22.464C252.219 22.1346 251.302 21.8214 250.369 21.5319C249.556 21.2748 248.759 21.0097 247.976 20.7365C247.194 20.4634 246.509 20.1501 245.922 19.7966C245.335 19.4431 244.861 19.0172 244.5 18.5189C244.139 18.029 243.958 17.4423 243.958 16.7675V16.671C243.958 15.4499 244.432 14.4295 245.38 13.6181C246.328 12.7985 247.6 12.3888 249.195 12.3888C250.429 12.3888 251.655 12.6138 252.874 13.0636C254.093 13.5136 255.229 14.1081 256.283 14.8472L257.456 12.8708C256.313 12.0271 255.011 11.3523 253.551 10.8622C252.092 10.3723 250.67 10.123 249.285 10.123C248.171 10.123 247.148 10.2918 246.215 10.6293C245.282 10.9666 244.485 11.4407 243.823 12.0432C243.161 12.6541 242.641 13.369 242.265 14.1885C241.889 15.0081 241.701 15.9079 241.701 16.9042V17.0004C241.701 18.0931 241.934 19.0091 242.401 19.7482C242.867 20.4795 243.477 21.0979 244.229 21.5962C244.981 22.0944 245.832 22.5041 246.78 22.8254C247.728 23.1469 248.668 23.4522 249.601 23.7414C250.414 23.9906 251.181 24.2477 251.904 24.5047C252.626 24.7618 253.273 25.0833 253.845 25.4689C254.416 25.8544 254.868 26.3045 255.199 26.8186C255.53 27.3327 255.695 27.9354 255.695 28.6424V28.7389C255.695 30.1851 255.161 31.3259 254.093 32.1535C253.025 32.9891 251.708 33.4067 250.143 33.4067C248.668 33.4067 247.239 33.1255 245.854 32.5633C244.47 32.0008 243.146 31.2054 241.882 30.177L240.573 32.0571C241.806 33.1178 243.266 33.9935 244.952 34.6603C246.637 35.3351 248.322 35.6726 250.008 35.6726C251.121 35.6726 252.159 35.5038 253.122 35.1663C254.086 34.8289 254.928 34.3468 255.651 33.7282C256.373 33.1016 256.937 32.3462 257.344 31.4625C257.75 30.5788 257.953 29.5984 257.953 28.5057L257.953 28.5059Z" fill="#FAFAFA"/>
<path d="M275.965 34.7567V32.5394C275.303 32.8445 274.716 33.0535 274.205 33.1741C273.693 33.2946 273.151 33.3589 272.58 33.3589C271.225 33.3589 270.119 33.0053 269.262 32.2983C268.404 31.5993 267.975 30.3619 267.975 28.5943V12.7746H276.056V10.6054H267.975V2.74768H265.763V10.6054H262.422V12.7746H265.763V28.8755C265.763 30.0325 265.928 31.0369 266.259 31.8885C266.591 32.74 267.049 33.4471 267.636 34.0096C268.223 34.5718 268.908 34.9816 269.69 35.2388C270.473 35.4961 271.316 35.6246 272.219 35.6246C272.941 35.6246 273.595 35.5523 274.182 35.4076C274.769 35.263 275.364 35.0462 275.965 34.7567Z" fill="#FAFAFA"/>
<path d="M304 22.8978V22.8016C304 21.066 303.707 19.4271 303.12 17.8845C302.533 16.3418 301.713 14.9921 300.659 13.8351C299.606 12.6781 298.364 11.7541 296.935 11.0631C295.505 10.3724 293.933 10.0267 292.217 10.0267C290.502 10.0267 288.922 10.3723 287.477 11.0631C286.032 11.7541 284.776 12.6941 283.708 13.8832C282.639 15.0724 281.812 16.4383 281.225 17.9808C280.638 19.5235 280.344 21.1625 280.344 22.8978V22.9943C280.344 24.7299 280.638 26.3688 281.225 27.9114C281.812 29.4541 282.632 30.8038 283.685 31.9608C284.738 33.1178 285.98 34.0418 287.409 34.7328C288.839 35.4235 290.411 35.7692 292.127 35.7692C293.843 35.7692 295.423 35.4237 296.867 34.7328C298.312 34.0418 299.568 33.1018 300.637 31.9127C301.705 30.7235 302.533 29.3576 303.12 27.8149C303.707 26.2725 304 24.6334 304 22.8978ZM301.652 22.9943C301.652 24.4326 301.419 25.7905 300.953 27.0758C300.479 28.3532 299.832 29.4621 298.997 30.4102C298.169 31.3502 297.168 32.1054 296.002 32.6598C294.843 33.2223 293.579 33.5035 292.217 33.5035C290.886 33.5035 289.637 33.2304 288.478 32.684C287.312 32.1457 286.296 31.3905 285.438 30.4343C284.573 29.4702 283.903 28.3455 283.414 27.052C282.933 25.7504 282.692 24.3684 282.692 22.898V22.8017C282.692 21.3635 282.925 20.0055 283.392 18.7203C283.866 17.4426 284.513 16.334 285.348 15.3858C286.176 14.4459 287.176 13.6907 288.342 13.1363C289.501 12.5738 290.765 12.2926 292.127 12.2926C293.459 12.2926 294.708 12.5657 295.867 13.1121C297.033 13.6504 298.048 14.4056 298.906 15.3618C299.771 16.3259 300.441 17.4506 300.93 18.7441C301.412 20.0457 301.652 21.4277 301.652 22.8978V22.9943Z" fill="#FAFAFA"/>
</g>
<defs>
<clipPath id="clip0">
<rect width="304" height="43" fill="white"/>
</clipPath>
</defs>
</svg>
