<svg width="153" height="176" viewBox="0 0 153 176" fill="none" xmlns="http://www.w3.org/2000/svg">
<path fill-rule="evenodd" clip-rule="evenodd" d="M76.0676 0L38.6952 21.577L1.32294 43.1541L38.6952 64.7311L76.0676 86.308L113.44 64.7311L150.812 43.1541L113.44 21.577L76.0676 0Z" fill="#F9CA09"/>
<path fill-rule="evenodd" clip-rule="evenodd" d="M6.86646e-05 45.7999V132.108L74.7446 175.262V88.9538L6.86646e-05 45.7999Z" fill="#F9CA09"/>
<path fill-rule="evenodd" clip-rule="evenodd" d="M77.3904 88.9538V175.262L152.135 132.108V45.7999L77.3904 88.9538Z" fill="#F9CA09"/>
<path fill-rule="evenodd" clip-rule="evenodd" d="M67.4214 93.9066C67.4214 98.1883 67.4214 102.47 67.4214 106.738C67.4214 107.224 67.1629 107.473 66.8624 107.3C62.277 104.652 57.6889 102.009 53.106 99.3663C48.5301 96.728 43.9469 94.0769 39.3677 91.4335C39.0672 91.2599 38.8147 90.7185 38.8147 90.2328C38.8147 85.9579 38.8147 81.6761 38.8147 77.3945C38.8147 76.9087 39.0672 76.6451 39.3677 76.8185C43.9469 79.4616 48.5323 82.1084 53.106 84.7503C57.6851 87.3955 62.2711 90.0429 66.8624 92.6921C67.163 92.8656 67.4214 93.4211 67.4214 93.9068V93.9066Z" fill="#FAFAFA"/>
<path fill-rule="evenodd" clip-rule="evenodd" d="M67.4214 111.915C67.4214 116.196 67.4214 120.478 67.4214 124.753C67.4214 125.239 67.1628 125.489 66.8624 125.315C62.2769 122.669 57.6918 120.02 53.112 117.376C48.533 114.732 43.9469 112.086 39.3677 109.442C39.0672 109.268 38.8147 108.727 38.8147 108.241C38.8147 103.966 38.8147 99.6843 38.8147 95.4025C38.8147 94.9168 39.0672 94.6603 39.3677 94.8337C43.9469 97.4772 48.5315 100.126 53.106 102.767C57.6903 105.414 62.277 108.06 66.8624 110.707C67.1629 110.881 67.4214 111.429 67.4214 111.915Z" fill="#FAFAFA"/>
<path fill-rule="evenodd" clip-rule="evenodd" d="M35.9119 77.5995C35.9119 85.122 35.9119 92.6375 35.9119 100.146C35.9119 107.654 35.9119 115.177 35.9119 122.685C35.9119 124.205 35.1307 125.003 34.1811 124.455C29.9862 122.033 25.7962 119.616 21.6025 117.194C17.4187 114.779 13.2308 112.359 9.04204 109.94C8.09248 109.392 7.32315 107.696 7.32315 106.176C7.32315 98.6671 7.32315 91.1448 7.32315 83.6431C7.32315 76.1345 7.32315 68.612 7.32315 61.0964C7.32315 59.5696 8.09812 58.763 9.04793 59.3118C13.2364 61.7326 17.4259 64.1506 21.6145 66.5685C25.8034 68.9865 29.992 71.4046 34.181 73.8252C35.1303 74.3736 35.9118 76.0799 35.9118 77.5996L35.9119 77.5995Z" fill="#FAFAFA"/>
<path fill-rule="evenodd" clip-rule="evenodd" d="M67.1449 129.757C67.1449 134.045 67.1449 138.327 67.1449 142.602C67.1449 143.088 66.8984 143.348 66.592 143.171C62.0065 140.526 57.4212 137.878 52.8416 135.234C48.2624 132.589 43.6825 129.939 39.0971 127.294C38.7905 127.117 38.5443 126.572 38.5443 126.086C38.5443 121.818 38.5443 117.536 38.5443 113.248C38.5443 112.762 38.7906 112.509 39.0971 112.686C43.6766 115.33 48.2618 117.975 52.8356 120.617C57.4144 123.263 62.0006 125.91 66.5919 128.556C66.8984 128.733 67.1448 129.271 67.1448 129.757L67.1449 129.757Z" fill="#FAFAFA"/>
<path fill-rule="evenodd" clip-rule="evenodd" d="M67.0307 148.476C67.0307 152.758 67.0307 157.04 67.0307 161.308C67.0307 161.793 66.7842 162.04 66.4838 161.867C56.7299 156.239 46.9757 150.607 37.222 144.975C27.4739 139.346 17.7203 133.716 7.97829 128.09C7.67201 127.914 7.42541 127.383 7.42541 126.897C7.42541 122.622 7.42541 118.341 7.42541 114.052C7.42541 113.566 7.67177 113.313 7.97829 113.49C17.7262 119.117 27.4739 124.753 37.222 130.381C46.9757 136.012 56.7299 141.651 66.4838 147.28C66.7842 147.453 67.0307 147.99 67.0307 148.476V148.476Z" fill="#FAFAFA"/>
<path fill-rule="evenodd" clip-rule="evenodd" d="M85.4396 92.6537C95.2158 87.0105 104.98 81.3714 114.751 75.7312C124.515 70.0942 134.286 64.4544 144.068 58.8062C144.52 58.5451 144.899 58.8224 144.899 59.421C144.899 62.3093 144.899 65.1836 144.899 68.0582C144.899 68.6496 144.52 69.3535 144.068 69.6145C134.285 75.2617 124.514 80.8995 114.751 86.5328C104.979 92.1712 95.2098 97.8133 85.4396 103.455C84.9875 103.716 84.6259 103.442 84.6259 102.85C84.6259 99.9757 84.6259 97.1013 84.6259 94.22C84.6259 93.6214 84.9875 92.9146 85.4396 92.6537V92.6537Z" fill="#FAFAFA"/>
<path fill-rule="evenodd" clip-rule="evenodd" d="M85.4396 151.479C95.204 145.841 104.976 140.202 114.751 134.555C124.523 128.91 134.291 123.265 144.068 117.622C144.52 117.361 144.899 117.633 144.899 118.224C144.899 121.106 144.899 123.98 144.899 126.854C144.899 127.453 144.519 128.142 144.068 128.403C134.297 134.045 124.521 139.688 114.751 145.329C104.975 150.974 95.2041 156.616 85.4396 162.253C84.9878 162.514 84.6259 162.252 84.6259 161.654C84.6259 158.786 84.6259 155.912 84.6259 153.03C84.6259 152.439 84.9878 151.74 85.4396 151.479V151.479Z" fill="#FAFAFA"/>
<path fill-rule="evenodd" clip-rule="evenodd" d="M97 130.1C104.837 125.575 112.689 121.041 120.531 116.513C128.373 111.985 136.22 107.454 144.068 102.923C144.52 102.662 144.899 102.927 144.899 103.525C144.899 106.406 144.899 109.281 144.899 112.148C144.899 112.74 144.52 113.443 144.068 113.704C136.22 118.234 128.378 122.77 120.531 127.3C112.689 131.827 104.836 136.361 96.994 140.895C96.5422 141.157 96.1683 140.885 96.1683 140.293C96.1683 137.419 96.1683 134.537 96.1683 131.662C96.1683 131.064 96.5435 130.363 97 130.1V130.1Z" fill="#FAFAFA"/>
<path fill-rule="evenodd" clip-rule="evenodd" d="M109.802 108.001C115.51 104.712 121.224 101.414 126.932 98.1187C132.64 94.8233 138.354 91.5247 144.068 88.2246C144.52 87.9634 144.899 88.2345 144.899 88.8191C144.899 91.7005 144.899 94.5818 144.899 97.4562C144.899 98.0479 144.52 98.7511 144.068 99.012C138.354 102.311 132.64 105.61 126.932 108.905C121.224 112.201 115.51 115.5 109.796 118.803C109.338 119.068 108.969 118.793 108.97 118.194C108.975 115.32 108.976 112.438 108.976 109.557C108.976 108.965 109.344 108.265 109.802 108.001V108.001Z" fill="#FAFAFA"/>
<path fill-rule="evenodd" clip-rule="evenodd" d="M97 100.691C104.841 96.1649 112.686 91.63 120.525 87.109C128.369 82.5843 136.214 78.0592 144.068 73.5258C144.52 73.2648 144.899 73.5354 144.899 74.127C144.899 77.0084 144.899 79.8828 144.899 82.7572C144.899 83.3557 144.52 84.0525 144.068 84.3133C136.22 88.839 128.371 93.3665 120.525 97.8962C112.688 102.42 104.841 106.953 97 111.48C96.5479 111.741 96.1742 111.477 96.1742 110.878C96.1742 108.003 96.1742 105.129 96.1742 102.24C96.1742 101.648 96.548 100.952 97 100.691Z" fill="#FAFAFA"/>
</svg>
